<svg xmlns="http://www.w3.org/2000/svg" width="900" height="1200" viewBox="0 0 900 1200">
  <defs>
    <linearGradient id="g" x1="0" x2="1" y1="0" y2="1">
      <stop offset="0" stop-color="#efe4d7"/>
      <stop offset="1" stop-color="#fff7ea"/>
    </linearGradient>
    <filter id="grain">
      <feTurbulence type="fractalNoise" baseFrequency=".9" numOctaves="2" stitchTiles="stitch"/>
      <feColorMatrix type="saturate" values="0"/>
      <feComponentTransfer><feFuncA type="table" tableValues="0 .08"/></feComponentTransfer>
    </filter>
  </defs>
  <rect width="900" height="1200" fill="url(#g)"/>
  <rect width="900" height="1200" filter="url(#grain)"/>
  <rect x="82" y="88" width="736" height="1024" rx="34" fill="none" stroke="#2b2721" stroke-opacity=".16" stroke-width="2"/>
  <text x="110" y="150" font-family="Georgia, serif" font-size="38" fill="#a84635" letter-spacing="3">TRACE / 002</text>
  
  <g fill="none" stroke="#2b2721" stroke-opacity=".28" stroke-width="4">
    <path d="M120 420 C210 360 300 480 390 420 S570 360 660 420 S780 480 840 420"/>
    <path d="M120 520 C210 460 300 580 390 520 S570 460 660 520 S780 580 840 520"/>
    <path d="M120 620 C210 560 300 680 390 620 S570 560 660 620 S780 680 840 620"/>
  </g>
  <g fill="#a84635" fill-opacity=".20">
    <circle cx="250" cy="470" r="42"/><circle cx="450" cy="470" r="42"/><circle cx="650" cy="470" r="42"/>
    <circle cx="350" cy="570" r="42"/><circle cx="550" cy="570" r="42"/><circle cx="750" cy="570" r="42"/>
  </g>
  <rect x="150" y="740" width="600" height="120" rx="60" fill="#fffaf2" fill-opacity=".48" stroke="#2b2721" stroke-opacity=".10"/>

</svg>