<svg xmlns="http://www.w3.org/2000/svg" viewBox="0 0 320 320" role="img" aria-label="微信二维码占位">
  <rect width="320" height="320" rx="28" fill="#fff8ec"/>
  <rect x="20" y="20" width="280" height="280" rx="18" fill="none" stroke="#241f1a" stroke-opacity="0.18" stroke-width="4"/>
  <g fill="#241f1a" fill-opacity="0.62">
    <rect x="46" y="46" width="72" height="72" rx="6"/>
    <rect x="202" y="46" width="72" height="72" rx="6"/>
    <rect x="46" y="202" width="72" height="72" rx="6"/>
  </g>
  <g fill="#fff8ec">
    <rect x="64" y="64" width="36" height="36" rx="4"/>
    <rect x="220" y="64" width="36" height="36" rx="4"/>
    <rect x="64" y="220" width="36" height="36" rx="4"/>
  </g>
  <g fill="#a34b38" fill-opacity="0.62">
    <rect x="142" y="48" width="18" height="18" rx="3"/>
    <rect x="164" y="70" width="34" height="18" rx="3"/>
    <rect x="142" y="102" width="40" height="18" rx="3"/>
    <rect x="132" y="140" width="24" height="24" rx="4"/>
    <rect x="166" y="136" width="18" height="58" rx="3"/>
    <rect x="198" y="146" width="44" height="18" rx="3"/>
    <rect x="132" y="210" width="18" height="44" rx="3"/>
    <rect x="164" y="218" width="34" height="18" rx="3"/>
    <rect x="214" y="202" width="18" height="72" rx="3"/>
    <rect x="246" y="232" width="28" height="28" rx="4"/>
  </g>
  <text x="160" y="156" text-anchor="middle" dominant-baseline="middle" font-family="Courier New, monospace" font-size="17" fill="#241f1a" fill-opacity="0.5">WECHAT QR</text>
  <text x="160" y="184" text-anchor="middle" dominant-baseline="middle" font-family="Arial, sans-serif" font-size="14" fill="#241f1a" fill-opacity="0.45">微信二维码待放入</text>
</svg>
